<svg width="46" height="64" viewBox="0 0 46 64" fill="none" xmlns="http://www.w3.org/2000/svg">
<path d="M11.9346 15.0631C14.9256 15.0631 17.3471 10.174 17.3471 7.17437C17.3637 6.45328 17.2361 5.73614 16.9716 5.06509C16.7072 4.39404 16.3112 3.78261 15.8071 3.26674C15.303 2.75087 14.7009 2.34097 14.0361 2.06111C13.3713 1.78125 12.6573 1.63708 11.936 1.63708C11.2147 1.63708 10.5007 1.78125 9.83592 2.06111C9.17114 2.34097 8.569 2.75087 8.06488 3.26674C7.56077 3.78261 7.16485 4.39404 6.90038 5.06509C6.63592 5.73614 6.50825 6.45328 6.52488 7.17437C6.52488 10.1625 8.94644 15.0631 11.9346 15.0631Z" fill="#076300"/>
<path d="M35.1965 21.2119C35.2687 21.2753 35.3231 21.3565 35.3543 21.4474C35.3855 21.5383 35.3924 21.6358 35.3744 21.7302C35.3564 21.8246 35.3141 21.9126 35.2516 21.9857C35.1891 22.0587 35.1086 22.1141 35.0182 22.1465L27.3365 25.0225C26.5012 25.2903 25.6153 25.3612 24.7481 25.2296C24.5094 25.1922 21.76 24.4962 20.4802 24.1597C20.4001 24.1395 20.3166 24.1374 20.2356 24.1537C20.1547 24.17 20.0785 24.2043 20.0125 24.2539C19.9466 24.3036 19.8926 24.3674 19.8546 24.4407C19.8166 24.514 19.7954 24.5949 19.7928 24.6774C19.5656 32.2181 18.7517 53.8308 18.6884 55.5621C18.6252 57.2935 18.5648 59.0133 18.5015 60.7388C18.4607 61.4025 18.2562 62.0457 17.9062 62.6111C16.9945 64.1325 14.7858 64.2763 13.3737 63.6551L13.3248 63.6349C13.0692 63.5042 12.8549 63.3051 12.7057 63.0599C12.5564 62.8147 12.478 62.5329 12.4792 62.2458V55.4874C12.4792 54.0302 12.4792 52.5712 12.4792 51.1102V48.7519C12.4796 48.6795 12.4657 48.6078 12.4382 48.5408C12.4108 48.4738 12.3704 48.4129 12.3194 48.3616C12.2683 48.3103 12.2076 48.2696 12.1408 48.2418C12.074 48.214 12.0023 48.1997 11.9299 48.1997C11.8573 48.1993 11.7853 48.2134 11.7182 48.241C11.651 48.2686 11.59 48.3093 11.5386 48.3606C11.4873 48.412 11.4466 48.473 11.419 48.5402C11.3914 48.6073 11.3774 48.6793 11.3777 48.7519V50.2301C11.3777 51.9845 11.3777 53.733 11.3777 55.4874V62.2458C11.3787 62.5307 11.3014 62.8103 11.1543 63.0542C11.0072 63.2982 10.796 63.497 10.5437 63.6292L10.4919 63.6493C9.07984 64.2705 6.8711 64.1267 5.95942 62.6053C5.61185 62.0391 5.40843 61.3962 5.36698 60.7331C5.3037 59.0075 5.23756 57.282 5.18004 55.5564C5.00748 50.5523 4.85793 45.5424 4.69688 40.5325C4.69688 40.4462 4.67674 40.3685 4.67099 40.3196C4.63752 40.3067 4.60284 40.297 4.56746 40.2909C4.25685 40.2017 3.952 40.1212 3.65003 40.0407L3.48897 39.9918C3.12253 39.8953 2.76156 39.7791 2.40761 39.6438C2.35774 39.6261 2.30878 39.606 2.26094 39.5834C1.71623 39.3844 1.23854 39.0362 0.882514 38.5784C0.526489 38.1207 0.306515 37.572 0.247762 36.9951C0.0521968 35.5369 0.535358 22.368 0.995513 19.2648C1.04682 18.9359 1.1346 18.6138 1.25723 18.3043C1.30373 18.1907 1.38536 18.0949 1.49018 18.0311C1.734 17.8854 2.00343 17.7878 2.28394 17.7435C3.05758 17.6428 3.83409 17.5479 4.60772 17.4559L5.71209 17.3265L6.35918 17.2574L8.03299 17.0647C8.09626 17.0647 8.15666 17.0475 8.21993 17.0446C8.40794 17.0207 8.5989 17.0494 8.77154 17.1276C8.94419 17.2058 9.09173 17.3304 9.19776 17.4875L9.30992 17.6428C9.59752 18.1116 9.91387 18.5717 10.2216 19.0376L10.3165 19.1843C10.5753 19.5697 10.8371 19.9608 11.0959 20.352L11.4726 20.9271C11.523 21.0031 11.5914 21.0654 11.6717 21.1085C11.752 21.1515 11.8417 21.1741 11.9328 21.1741C12.0239 21.1741 12.1136 21.1515 12.1939 21.1085C12.2742 21.0654 12.3426 21.0031 12.393 20.9271C12.5195 20.7373 12.646 20.5475 12.7668 20.352C13.0314 19.9608 13.2874 19.5697 13.5462 19.1843C13.5778 19.1297 13.6095 19.0865 13.644 19.0376L14.5701 17.6428C14.8318 17.2431 15.1452 16.9842 15.6514 17.0446C15.7089 17.0446 15.7636 17.0446 15.8211 17.0619H15.87C17.3454 17.0619 18.7661 17.5997 20.1609 18.0196C21.0237 18.2813 21.9124 18.543 22.7896 18.7989L23.9658 19.1699C25.0556 19.4986 26.2149 19.5205 27.3163 19.2332L31.7511 18.0828C31.8403 18.0616 31.9333 18.062 32.0224 18.084C32.1114 18.106 32.1939 18.149 32.263 18.2094C32.4528 18.3819 32.6455 18.566 32.8382 18.7587C33.3558 19.2763 33.8505 19.7998 34.3739 20.3548L34.8629 20.8725C34.9693 20.9962 35.0843 21.1083 35.1965 21.2119Z" fill="#076300"/>
<path d="M24.1108 14.0248C24.1108 14.5684 23.7196 14.9653 23.317 14.833C22.5894 14.6 22.0113 14.0766 21.879 12.8457C21.8201 12.3223 21.7875 11.7963 21.7812 11.2697C21.7813 10.7405 21.8244 10.2085 21.879 9.69367C22.0171 8.4714 22.5923 7.94797 23.317 7.71215C23.7225 7.57985 24.1108 7.97386 24.1137 8.51741L24.1108 14.0248Z" fill="#076300"/>
<path d="M45.4534 7.01906C45.1485 5.04328 44.6395 3.11352 43.4402 1.40521C42.1776 -0.372121 40.6879 -0.4584 39.1751 1.11762C38.436 1.89412 37.7084 2.67926 36.9463 3.43851C35.143 5.23885 33.0637 6.69408 30.3891 7.17724C29.0763 7.3836 27.7491 7.48458 26.4202 7.47921C25.845 7.47921 25.3878 7.85883 25.3906 8.31323L25.4079 14.2521C25.4079 14.7036 25.8652 15.0746 26.4375 15.0832C27.7555 15.0738 29.0721 15.17 30.3747 15.3708C33.0493 15.8396 35.1286 17.2948 36.929 19.1095C36.952 19.1325 36.975 19.1527 36.9951 19.1757C37.7314 19.9148 38.4331 20.6769 39.155 21.4304C39.828 22.1379 40.4952 22.5118 41.1394 22.5549C41.9476 22.6067 42.7183 22.1408 43.42 21.1543C44.6337 19.4489 45.1456 17.5191 45.4476 15.5405C45.6717 14.1325 45.7909 12.7098 45.8042 11.2841C45.7918 9.85574 45.6745 8.43024 45.4534 7.01906ZM43.4632 15.2241C43.2044 16.9698 42.7557 18.6954 41.683 20.2139C41.6246 20.2995 41.5571 20.3786 41.4816 20.4497C41.2257 20.6798 40.9841 20.6137 40.7138 20.2254C40.4227 19.8078 40.1659 19.3673 39.9459 18.9082C39.3443 17.5958 38.956 16.1959 38.7955 14.7611C38.7725 14.5828 38.7524 14.4074 38.7322 14.2319H38.7524H38.7869C39.6023 14.2286 40.4 13.9943 41.0876 13.5561C41.4919 13.3238 41.8306 12.9927 42.0721 12.5938C42.3135 12.195 42.4498 11.7414 42.4681 11.2755C42.4521 10.8132 42.3198 10.3625 42.0836 9.96492C41.8473 9.56732 41.5147 9.23566 41.1164 9.00058C40.4288 8.56239 39.631 8.32806 38.8156 8.32474H38.7811H38.761C38.7811 8.1493 38.8013 7.97387 38.8243 7.79556C39.0687 5.94633 39.5404 4.05683 40.7368 2.33127C41.0761 1.84523 41.3695 1.86536 41.7088 2.33127C42.7816 3.85264 43.2245 5.57533 43.4833 7.32103C43.6813 8.62821 43.787 9.94769 43.7997 11.2697C43.7807 12.5941 43.6683 13.9155 43.4632 15.2241Z" fill="#076300"/>
</svg>
