<svg width="48" height="65" viewBox="0 0 48 65" fill="none" xmlns="http://www.w3.org/2000/svg">
<path d="M47.1325 62.3153C47.1327 62.5955 47.0776 62.873 46.9705 63.1319C46.8633 63.3908 46.7062 63.626 46.5081 63.8241C46.3099 64.0223 46.0747 64.1794 45.8158 64.2865C45.5569 64.3937 45.2794 64.4488 44.9992 64.4486H2.33255C2.05235 64.4488 1.77487 64.3937 1.51597 64.2865C1.25707 64.1794 1.02183 64.0223 0.823701 63.8241C0.625571 63.626 0.468437 63.3908 0.361284 63.1319C0.25413 62.873 0.199059 62.5955 0.199219 62.3153C0.199219 56.0915 2.67159 50.1227 7.07245 45.7218C11.4733 41.321 17.4421 38.8486 23.6659 38.8486C29.8896 38.8486 35.8585 41.321 40.2593 45.7218C44.6602 50.1227 47.1325 56.0915 47.1325 62.3153ZM23.6659 8.98194C21.1343 8.98194 18.6595 9.73265 16.5546 11.1391C14.4496 12.5456 12.809 14.5447 11.8402 16.8836C10.8714 19.2225 10.6179 21.7961 11.1118 24.2791C11.6057 26.7621 12.8248 29.0428 14.6149 30.8329C16.405 32.623 18.6858 33.8421 21.1687 34.336C23.6517 34.8299 26.2253 34.5764 28.5642 33.6076C30.9031 32.6388 32.9022 30.9982 34.3087 28.8932C35.7152 26.7883 36.4659 24.3135 36.4659 21.7819C36.4622 18.3883 35.1124 15.1347 32.7128 12.7351C30.3131 10.3354 27.0595 8.98565 23.6659 8.98194ZM4.46589 28.1819C5.59703 28.1805 6.68142 27.7305 7.48125 26.9306C8.28109 26.1308 8.73108 25.0464 8.73255 23.9153V19.6486C8.73255 18.517 8.28303 17.4318 7.48287 16.6316C6.68272 15.8315 5.59748 15.3819 4.46589 15.3819C3.3343 15.3819 2.24905 15.8315 1.4489 16.6316C0.648741 17.4318 0.199219 18.517 0.199219 19.6486V23.9153C0.200687 25.0464 0.650681 26.1308 1.45052 26.9306C2.25036 27.7305 3.33475 28.1805 4.46589 28.1819ZM23.6659 4.71528C26.5334 4.7182 29.354 5.44412 31.8667 6.82591C34.3794 8.2077 36.5031 10.2007 38.0414 12.6207C39.2645 11.7922 40.6829 11.298 42.156 11.187C40.295 7.92529 37.6043 5.21389 34.357 3.32793C31.1096 1.44198 27.4212 0.448608 23.6659 0.448608C19.9106 0.448608 16.2221 1.44198 12.9748 3.32793C9.72744 5.21389 7.03675 7.92529 5.17577 11.187C6.64885 11.298 8.06731 11.7922 9.29035 12.6207C10.8287 10.2007 12.9524 8.2077 15.4651 6.82591C17.9778 5.44412 20.7983 4.7182 23.6659 4.71528ZM42.8659 15.3819C41.7347 15.3834 40.6504 15.8334 39.8505 16.6332C39.0507 17.4331 38.6007 18.5175 38.5992 19.6486V23.9153C38.6004 24.6272 38.7799 25.3275 39.1215 25.9522C39.463 26.5769 39.9556 27.106 40.5543 27.4913C40.2285 28.8983 39.4366 30.1539 38.307 31.0538C37.1775 31.9538 35.7768 32.4454 34.3326 32.4486C33.7668 32.4486 33.2241 32.6734 32.8241 33.0734C32.424 33.4735 32.1992 34.0161 32.1992 34.5819C32.1992 35.1477 32.424 35.6904 32.8241 36.0904C33.2241 36.4905 33.7668 36.7153 34.3326 36.7153C36.8731 36.7083 39.3275 35.7938 41.2532 34.1366C43.1788 32.4795 44.4489 30.1888 44.8345 27.6776C45.5247 27.3202 46.1037 26.7806 46.5088 26.1173C46.914 25.4541 47.1297 24.6925 47.1325 23.9153V19.6486C47.1311 18.5175 46.6811 17.4331 45.8813 16.6332C45.0814 15.8334 43.997 15.3834 42.8659 15.3819Z" fill="#076300"/>
</svg>
