<svg width="64" height="65" viewBox="0 0 64 65" fill="none" xmlns="http://www.w3.org/2000/svg">
<path fill-rule="evenodd" clip-rule="evenodd" d="M21.2897 6.20295C21.9652 6.43919 22.713 6.16212 23.0825 5.54381C24.8291 2.53688 28.1808 0.448608 32 0.448608C35.8223 0.448608 39.1711 2.53688 40.9174 5.54381C41.287 6.16212 42.0347 6.43627 42.7102 6.20295C45.9609 5.03342 49.8583 5.61089 52.7829 8.09284C55.7102 10.5719 56.9487 14.3488 56.3714 17.7872C56.2588 18.5017 56.6572 19.1959 57.3241 19.4555C60.5603 20.6717 63.1759 23.6437 63.8399 27.4437C64.5039 31.244 63.0518 34.9422 60.4218 37.1993C59.8819 37.6747 59.7433 38.4651 60.0927 39.098C61.7988 42.1283 61.9114 46.1065 60.0003 49.4486C58.0891 52.791 54.6248 54.6809 51.1752 54.7014C50.4592 54.716 49.8501 55.2322 49.7144 55.941C49.0908 59.3709 46.6485 62.4886 43.0571 63.8098C39.4686 65.1309 35.6118 64.326 32.9527 62.1035C32.3955 61.6486 31.6016 61.6486 31.0444 62.1035C28.3855 64.326 24.5286 65.1309 20.94 63.8098C17.3487 62.4886 14.9063 59.3708 14.2856 55.941C14.1499 55.2322 13.5408 54.716 12.8248 54.7044C9.37488 54.681 5.90767 52.7911 3.99971 49.4487C2.08858 46.1063 2.20403 42.1311 3.91022 39.1011C4.25666 38.4682 4.11808 37.6778 3.57822 37.2024C0.948211 34.9421 -0.503891 31.2467 0.160079 27.4438C0.824078 23.6436 3.43965 20.6716 6.67591 19.4555C7.34279 19.196 7.74119 18.5019 7.62863 17.7873C7.05413 14.3486 8.29263 10.5746 11.22 8.09291C14.1473 5.61094 18.0419 5.03342 21.2926 6.20594L21.2897 6.20295ZM29.8665 45.3551L47.0666 27.9786C48.842 26.185 48.842 23.2771 47.0666 21.4864L47.0637 21.4835C45.2882 19.6898 42.4099 19.6898 40.6373 21.4835L27.689 34.5646C27.5447 34.7104 27.3484 34.7921 27.1463 34.7921C26.9413 34.7921 26.7479 34.7104 26.6007 34.5646L23.5116 31.4439C21.7362 29.6502 18.8578 29.6502 17.0853 31.4439L17.0824 31.4468C15.307 33.2404 15.307 36.1483 17.0824 37.9419L24.4239 45.3587C25.1456 46.0879 26.1243 46.4961 27.1463 46.4961C28.1683 46.4961 29.1469 46.0849 29.8687 45.3587L29.8665 45.3551Z" fill="#076300"/>
</svg>
