<svg width="65" height="64" viewBox="0 0 65 64" fill="none" xmlns="http://www.w3.org/2000/svg">
<path d="M32.3298 54.5796C36.7956 54.5796 41.1612 53.2553 44.8744 50.7743C48.5876 48.2932 51.4817 44.7667 53.1907 40.6408C54.8998 36.5149 55.3469 31.9749 54.4757 27.5949C53.6045 23.2148 51.454 19.1915 48.2962 16.0337C45.1384 12.8758 41.1151 10.7252 36.7351 9.85396C32.3551 8.98267 27.8151 9.42978 23.6891 11.1387C19.5632 12.8477 16.0367 15.7417 13.5556 19.4549C11.0744 23.1681 9.75007 27.5336 9.75 31.9995C9.75671 37.986 12.1378 43.7254 16.3709 47.9585C20.6039 52.1916 26.3433 54.5728 32.3298 54.5796ZM28.7194 22.8224H23.8886C23.304 22.8224 22.7434 22.5902 22.33 22.1769C21.9166 21.7635 21.6844 21.2029 21.6844 20.6183C21.6844 20.0337 21.9166 19.4731 22.33 19.0597C22.7434 18.6464 23.304 18.4141 23.8886 18.4141H40.771C41.3556 18.4141 41.9162 18.6464 42.3296 19.0597C42.7429 19.4731 42.9751 20.0337 42.9751 20.6183C42.9751 21.2029 42.7429 21.7635 42.3296 22.1769C41.9162 22.5902 41.3556 22.8224 40.771 22.8224H36.7047C37.2945 23.7134 37.7022 24.7122 37.9045 25.7613H40.7699C41.3545 25.7613 41.9151 25.9936 42.3285 26.4069C42.7418 26.8203 42.974 27.3809 42.974 27.9655C42.974 28.5501 42.7418 29.1107 42.3285 29.5241C41.9151 29.9374 41.3545 30.1696 40.7699 30.1696H37.9045C37.3861 32.0849 36.2934 33.7954 34.7734 35.0707C33.2534 36.3461 31.3792 37.1252 29.403 37.303L37.475 44.846C37.6891 45.0437 37.8618 45.282 37.9831 45.547C38.1044 45.8119 38.1718 46.0984 38.1815 46.3896C38.1911 46.6808 38.1428 46.9711 38.0394 47.2435C37.9359 47.516 37.7794 47.7651 37.5789 47.9766C37.3783 48.188 37.1378 48.3575 36.8712 48.4752C36.6046 48.5929 36.3173 48.6565 36.026 48.6622C35.7346 48.668 35.445 48.6158 35.174 48.5087C34.903 48.4016 34.656 48.2418 34.4472 48.0384L22.3732 36.6172C22.0534 36.308 21.8322 35.9111 21.7373 35.4765C21.6425 35.0419 21.6784 34.5889 21.8403 34.1746C22.0023 33.7603 22.2832 33.4032 22.6476 33.1481C23.0121 32.893 23.4439 32.7515 23.8886 32.7412H28.7194C29.6328 32.747 30.5317 32.5124 31.3258 32.0611C32.12 31.6097 32.7814 30.9574 33.2438 30.1696H23.8886C23.304 30.1696 22.7434 29.9374 22.33 29.5241C21.9166 29.1107 21.6844 28.5501 21.6844 27.9655C21.6844 27.3809 21.9166 26.8203 22.33 26.4069C22.7434 25.9936 23.304 25.7613 23.8886 25.7613H33.2438C32.8637 24.8797 32.2313 24.1303 31.4262 23.6073C30.6211 23.0844 29.6793 22.8113 28.7194 22.8224Z" fill="#076300"/>
<path d="M0.332031 31.9996C0.331959 38.3286 2.20867 44.5156 5.72483 49.778C9.24099 55.0404 14.2387 59.142 20.0859 61.564C25.9331 63.9861 32.3673 64.6198 38.5747 63.3852C44.7821 62.1505 50.484 59.1028 54.9593 54.6275C59.4346 50.1523 62.4824 44.4504 63.7171 38.243C64.9519 32.0356 64.3182 25.6015 61.8962 19.7542C59.4742 13.907 55.3727 8.90922 50.1103 5.393C44.8479 1.87678 38.661 4.17055e-10 32.332 0C23.8481 0.00962562 15.7144 3.38409 9.71537 9.38308C3.71631 15.3821 0.341754 23.5157 0.332031 31.9996ZM32.332 5.01189C37.6698 5.01189 42.8877 6.59473 47.3258 9.56023C51.764 12.5257 55.2232 16.7407 57.2658 21.6722C59.3085 26.6036 59.8429 32.0301 58.8015 37.2652C57.7602 42.5004 55.1898 47.3093 51.4154 51.0836C47.641 54.8579 42.8321 57.4283 37.5969 58.4696C32.3617 59.5109 26.9353 58.9764 22.0039 56.9336C17.0724 54.8909 12.8575 51.4317 9.89206 46.9935C6.92662 42.5553 5.34385 37.3374 5.34393 31.9996C5.35209 24.8445 8.19811 17.9847 13.2576 12.9253C18.3171 7.86589 25.1769 5.01996 32.332 5.01189Z" fill="#076300"/>
</svg>
