<svg width="86" height="65" viewBox="0 0 86 65" fill="none" xmlns="http://www.w3.org/2000/svg">
<path d="M26.9643 55.5217C26.3239 55.5217 25.7999 54.9977 25.7999 54.3573C25.7999 53.7169 26.3239 53.1929 26.9643 53.1929H43.091C43.7314 53.1929 44.2554 53.7169 44.2554 54.3573C44.2554 54.9977 43.7314 55.5217 43.091 55.5217H26.9643ZM26.9643 11.3333C26.3239 11.3333 25.7999 10.8094 25.7999 10.169C25.7999 9.52854 26.3239 9.00457 26.9643 9.00457H47.962C48.6024 9.00457 49.1264 9.52854 49.1264 10.169C49.1264 10.8094 48.6024 11.3333 47.962 11.3333H26.9643ZM9.34329 41.5685V36.1153C9.34329 34.6986 10.6047 33.6119 12.0214 33.6119H18.212C19.6287 33.6119 20.8901 34.6792 20.8901 36.1153V41.5685C20.8901 42.9852 19.6287 44.0719 18.212 44.0719H12.0214C10.6047 44.0719 9.34329 42.9852 9.34329 41.5685ZM11.6721 36.1153V41.5685C11.6721 41.6267 11.8467 41.7432 12.0214 41.7432H18.212C18.3867 41.7432 18.5613 41.6267 18.5613 41.5685V36.1153C18.5613 36.0571 18.3867 35.9406 18.212 35.9406H12.0214C11.8273 35.9406 11.6721 36.0571 11.6721 36.1153ZM9.34329 12.9635V7.51027C9.34329 6.09361 10.6047 5.00685 12.0214 5.00685H18.212C19.6287 5.00685 20.8901 6.0742 20.8901 7.51027V12.9635C20.8901 14.3801 19.6287 15.4669 18.212 15.4669H12.0214C10.6047 15.4669 9.34329 14.3801 9.34329 12.9635ZM11.6721 7.51027V12.9635C11.6721 13.0217 11.8467 13.1381 12.0214 13.1381H18.212C18.3867 13.1381 18.5613 13.0411 18.5613 12.9635V7.51027C18.5613 7.45206 18.3867 7.33562 18.212 7.33562H12.0214C11.8273 7.33562 11.6721 7.45206 11.6721 7.51027ZM9.34329 27.266V21.8128C9.34329 20.3961 10.6047 19.3094 12.0214 19.3094H18.212C19.6287 19.3094 20.8901 20.3767 20.8901 21.8128V27.266C20.8901 28.6826 19.6287 29.7694 18.212 29.7694H12.0214C10.6047 29.7694 9.34329 28.6826 9.34329 27.266ZM11.6721 21.8128V27.266C11.6721 27.3242 11.8467 27.4406 12.0214 27.4406H18.212C18.3867 27.4406 18.5613 27.3242 18.5613 27.266V21.8128C18.5613 21.7546 18.3867 21.6381 18.212 21.6381H12.0214C11.8273 21.6381 11.6721 21.7546 11.6721 21.8128ZM9.34329 55.871V50.4178C9.34329 49.0011 10.6047 47.9144 12.0214 47.9144H18.212C19.6287 47.9144 20.8901 48.9817 20.8901 50.4178V55.871C20.8901 57.2877 19.6287 58.3744 18.212 58.3744H12.0214C10.6047 58.3744 9.34329 57.3071 9.34329 55.871ZM11.6721 50.4178V55.871C11.6721 55.9292 11.8467 56.0457 12.0214 56.0457H18.212C18.3867 56.0457 18.5613 55.9486 18.5613 55.871V50.4178C18.5613 50.3596 18.3867 50.2432 18.212 50.2432H12.0214C11.8273 50.2432 11.6721 50.3596 11.6721 50.4178ZM79.2645 18.0674H33.9506C30.7097 18.0674 28.051 20.726 28.051 23.9669V40.8699C28.051 44.1107 30.7097 46.7694 33.9506 46.7694H59.1013C59.7417 46.7694 60.2657 47.2934 60.2657 47.9338V56.1621L66.7086 47.2934C66.9026 46.9635 67.2714 46.7694 67.6789 46.7694H79.2645C82.5054 46.7694 85.1641 44.1107 85.1641 40.8699V23.9669C85.1641 20.726 82.5054 18.0674 79.2645 18.0674ZM33.9506 15.7386H57.9369V3.47374C57.9369 1.57192 56.365 0 54.4632 0H3.63781C1.73598 0 0.164062 1.57192 0.164062 3.47374V60.9749C0.164062 62.8961 1.73598 64.4486 3.63781 64.4486H54.4632C56.365 64.4486 57.9369 62.8767 57.9369 60.9749V49.0788H33.9506C29.4289 49.0788 25.7223 45.3916 25.7223 40.8505V23.9475C25.7223 19.4452 29.4289 15.7386 33.9506 15.7386ZM35.3284 29.8858C34.688 29.8858 34.1641 29.3619 34.1641 28.7215C34.1641 28.0811 34.688 27.5571 35.3284 27.5571H40.1024C40.7428 27.5571 41.2668 28.0811 41.2668 28.7215C41.2668 29.3619 40.7428 29.8858 40.1024 29.8858H35.3284ZM60.7314 27.5571C61.3718 27.5571 61.8958 28.0811 61.8958 28.7215C61.8958 29.3619 61.3718 29.8858 60.7314 29.8858H45.3227C44.6823 29.8858 44.1584 29.3619 44.1584 28.7215C44.1584 28.0811 44.6823 27.5571 45.3227 27.5571H60.7314ZM60.7314 36.1541C61.3718 36.1541 61.8958 36.6781 61.8958 37.3185C61.8958 37.9589 61.3718 38.4829 60.7314 38.4829H55.9574C55.317 38.4829 54.7931 37.9589 54.7931 37.3185C54.7931 36.6781 55.317 36.1541 55.9574 36.1541H60.7314ZM35.3284 38.4829C34.688 38.4829 34.1641 37.9589 34.1641 37.3185C34.1641 36.6781 34.688 36.1541 35.3284 36.1541H50.7371C51.3775 36.1541 51.9015 36.6781 51.9015 37.3185C51.9015 37.9589 51.3775 38.4829 50.7371 38.4829H35.3284ZM73.0739 40.2877C73.0739 39.6473 73.5978 39.1233 74.2383 39.1233C74.8787 39.1233 75.4026 39.6473 75.4026 40.2877V40.8116C75.4026 41.4521 74.8787 41.976 74.2383 41.976C73.5978 41.976 73.0739 41.4521 73.0739 40.8116V40.2877ZM70.9586 28.6438C70.9586 29.2842 70.4346 29.8082 69.7942 29.8082C69.1538 29.8082 68.6298 29.2842 68.6298 28.6438C68.6298 23.6564 74.6846 21.153 78.2166 24.6849C80.5065 26.9749 80.3901 30.7203 77.9449 32.8744C77.5179 33.2431 77.091 33.5925 76.7223 33.8836C75.3056 35.0285 75.4221 35.0091 75.4221 36.1347C75.4221 36.7751 74.8981 37.2991 74.2577 37.2991C73.6173 37.2991 73.0933 36.7751 73.0933 36.1347V35.4361C73.0933 33.8253 73.9083 33.1655 75.2862 32.0788C76.4312 31.1667 77.5373 30.3904 77.5373 28.6632C77.5373 25.7523 74.0054 24.2774 71.9289 26.3345C71.3273 26.9167 70.9586 27.7317 70.9586 28.6438Z" fill="#076300"/>
</svg>
